<?xml version="1.0" encoding="UTF-8" standalone="no" ?>
<!DOCTYPE svg PUBLIC "-//W3C//DTD SVG 1.1//EN" "http://www.w3.org/Graphics/SVG/1.1/DTD/svg11.dtd">
<svg xmlns="http://www.w3.org/2000/svg" xmlns:xlink="http://www.w3.org/1999/xlink" version="1.1" width="1080" height="1080" viewBox="0 0 1080 1080" xml:space="preserve">
<desc>Created with Fabric.js 5.2.4</desc>
<defs>
</defs>
<rect x="0" y="0" width="100%" height="100%" fill="transparent"></rect>
<g transform="matrix(1 0 0 1 540 540)" id="28fc0d60-16de-4d46-86e9-7b0fb4a56f9b"  >
<rect style="stroke: none; stroke-width: 1; stroke-dasharray: none; stroke-linecap: butt; stroke-dashoffset: 0; stroke-linejoin: miter; stroke-miterlimit: 4; fill: rgb(144,164,174); fill-rule: nonzero; opacity: 1;" vector-effect="non-scaling-stroke"  x="-540" y="-540" rx="0" ry="0" width="1080" height="1080" />
</g>
<g transform="matrix(1 0 0 1 540 540)" id="2441fef2-87ce-4b40-84de-aaad79f75a92"  >
</g>
<g transform="matrix(NaN NaN NaN NaN 0 0)"  >
<g style=""   >
</g>
</g>
<g transform="matrix(5.83 0 0 7.93 535 534)" id="Layer_1"  >
<path style="stroke: none; stroke-width: 1; stroke-dasharray: none; stroke-linecap: butt; stroke-dashoffset: 0; stroke-linejoin: miter; stroke-miterlimit: 4; fill: rgb(0,0,0); fill-rule: evenodd; opacity: 1;"  transform=" translate(-61.43, -40.6)" d="M 4.73 48.37 L 16.35 48.37 C 17.091676216083595 48.37549404834819 17.69002034860532 48.97830343559023 17.69 49.72 L 17.69 79.8 C 17.69 80.15539009638499 17.548821833910342 80.49622433966961 17.297523086789976 80.74752308678997 C 17.04622433966961 80.99882183391034 16.705390096384992 81.14 16.35 81.14 L 4.73 81.14 C 3.9883034355902254 81.14002034860532 3.385494048348189 80.54167621608359 3.38 79.8 L 3.38 49.72 C 3.385445764593413 48.97668298277626 3.9866829827762595 48.37544576459341 4.7299999999999995 48.37 Z M 116 17.59 C 119.74323605869708 17.58424490564277 122.80002603792732 20.580311844789364 122.86936979615672 24.32290997382162 C 122.93871355438611 28.065508102853876 119.9950072173202 31.172753680867896 116.25412715992961 31.30566608983912 C 112.51324710253903 31.438578498810347 109.35644270019189 28.54808233962047 109.16 24.810000000000002 L 91.44 12.36 C 90.25505582597089 13.232575641547756 88.8215556287795 13.70223096287696 87.35 13.7 C 85.81117486902684 13.703121453239522 84.31665514619066 13.184974285180745 83.11 12.229999999999999 L 68.23 23.55 C 68.27023212442553 23.84495538812309 68.29027874155837 24.14231354226002 68.29 24.439999999999998 C 68.28869154853761 27.040427082483426 66.81504364917444 29.415874319682978 64.48582379371189 30.57214314148759 C 62.15660393824932 31.728411963292203 59.3735167765261 31.466088578387513 57.30137086894692 29.894963484366887 C 55.229224961367734 28.32383839034626 54.225389168698015 25.714872808095013 54.71000000000001 23.160000000000004 L 39.53000000000001 12.16 C 37.071254225949126 14.121420293028553 33.59452816768557 14.162613729737838 31.09000000000001 12.260000000000002 L 13.7 24.68 C 13.591939216817806 27.909174215564374 11.245246441488653 30.625227581007046 8.065949831816305 31.200828410622194 C 4.886653222143956 31.776429240237338 1.7366654918786715 30.055531170945414 0.5033114293571508 27.069215547340068 C -0.7300426331643699 24.08289992373472 0.28760135435827117 20.64076198629329 2.946518882556415 18.805169214034578 C 5.6054364107545585 16.96957644177587 9.184790419193138 17.238161154649084 11.540000000000003 19.450000000000003 L 28.419999999999998 7.449999999999999 C 28.419999999999998 7.249999999999999 28.419999999999998 7.06 28.419999999999998 6.859999999999999 C 28.419999999999998 3.0768494636590646 31.486849463659063 0.009999999999999787 35.269999999999996 0.009999999999999787 C 39.05315053634094 0.009999999999999787 42.12 3.076849463659063 42.12 6.859999999999998 C 42.12 6.999999999999999 42.12 7.14 42.12 7.27 L 57.82 18.62 C 58.91015470857386 17.9564242181052 60.163805527680736 17.610111837136454 61.44 17.62 C 62.83902056087427 17.61677434780963 64.20478472876633 18.046413715202785 65.35 18.85 L 80.52 7.27 C 80.52 7.13 80.52 6.989999999999999 80.52 6.85 C 80.6607363538951 3.1659047811858025 83.68821762201817 0.2518682875035694 87.375 0.2518682875035694 C 91.06178237798181 0.2518682875035694 94.08926364610488 3.1659047811857994 94.22999999999999 6.849999999999996 C 94.24551567892767 7.0797383301167525 94.24551567892767 7.310261669883242 94.22999999999999 7.539999999999996 L 111.32 19.54 C 112.57029409126422 18.31100023498567 114.24695284815289 17.612392419615386 116 17.59 Z M 106.5 45.59 L 118.12 45.59 C 118.49298508622037 45.58426046212117 118.85195471074088 45.7319769144453 119.1128748825424 45.99856926389467 C 119.37379505434393 46.26516161334405 119.51375846816337 46.62722456975859 119.5 47 L 119.5 79.8 C 119.49450595165182 80.54167621608359 118.89169656440978 81.14002034860532 118.15 81.14 L 106.53 81.14 C 106.174609903615 81.14 105.83377566033039 80.99882183391034 105.58247691321003 80.74752308678997 C 105.33117816608966 80.49622433966961 105.19 80.15539009638499 105.19 79.8 L 105.19 47 C 105.18997965139468 46.25830343559023 105.78832378391641 45.65549404834819 106.53 45.65 Z M 81.08 28.49 L 92.7 28.49 C 93.44331701722373 28.495445764593416 94.04455423540658 29.09668298277626 94.05 29.84 L 94.05 79.84 C 94.04450595165181 80.5816762160836 93.44169656440978 81.18002034860532 92.7 81.18 L 81.08 81.18 C 80.724609903615 81.18 80.38377566033039 81.03882183391035 80.13247691321003 80.78752308678997 C 79.88117816608965 80.53622433966962 79.74 80.195390096385 79.74 79.84 L 79.74 29.840000000000003 C 79.73733485424738 29.48288043241584 79.87733558697416 29.13947154305248 80.128923780062 28.886005826135623 C 80.38051197314985 28.632540109218766 80.72287048784162 28.48999005528732 81.08 28.490000000000002 Z M 55.63 45.61 L 67.25 45.61 C 67.61334382775648 45.61253170815399 67.96032709529578 45.761422704716985 68.21250826273979 46.02301361721488 C 68.46468943018381 46.28460452971277 68.60077482449594 46.63680714507029 68.59 47 L 68.59 79.8 C 68.59 80.15539009638499 68.44882183391034 80.49622433966961 68.19752308678997 80.74752308678997 C 67.94622433966961 80.99882183391034 67.605390096385 81.14 67.25 81.14 L 55.63 81.14 C 55.274609903615016 81.14 54.93377566033039 80.99882183391034 54.682476913210024 80.74752308678997 C 54.43117816608966 80.49622433966961 54.29 80.15539009638499 54.29 79.8 L 54.29 47 C 54.28997965139468 46.25830343559023 54.88832378391641 45.65549404834819 55.63 45.65 Z M 30.18 28.49 L 41.8 28.49 C 42.54167621608359 28.49549404834819 43.14002034860532 29.098303435590225 43.14 29.84 L 43.14 79.84 C 43.14 80.195390096385 42.99882183391034 80.53622433966962 42.747523086789975 80.78752308678997 C 42.49622433966961 81.03882183391035 42.155390096384984 81.18 41.8 81.18 L 30.18 81.18 C 29.438303435590225 81.18002034860532 28.83549404834819 80.5816762160836 28.83 79.84 L 28.83 29.840000000000003 C 28.83 29.48195773871662 28.972231734493313 29.13857995630301 29.22540584539816 28.885405845398164 C 29.478579956303005 28.632231734493317 29.821957738716616 28.490000000000002 30.18 28.490000000000002 Z" stroke-linecap="round" />
</g>
</svg>