<?xml version="1.0" encoding="UTF-8" standalone="no" ?>
<!DOCTYPE svg PUBLIC "-//W3C//DTD SVG 1.1//EN" "http://www.w3.org/Graphics/SVG/1.1/DTD/svg11.dtd">
<svg xmlns="http://www.w3.org/2000/svg" xmlns:xlink="http://www.w3.org/1999/xlink" version="1.1" width="1080" height="1080" viewBox="0 0 1080 1080" xml:space="preserve">
<desc>Created with Fabric.js 5.2.4</desc>
<defs>
</defs>
<rect x="0" y="0" width="100%" height="100%" fill="transparent"></rect>
<g transform="matrix(1 0 0 1 540 540)" id="28fc0d60-16de-4d46-86e9-7b0fb4a56f9b"  >
<rect style="stroke: none; stroke-width: 1; stroke-dasharray: none; stroke-linecap: butt; stroke-dashoffset: 0; stroke-linejoin: miter; stroke-miterlimit: 4; fill: rgb(144,164,174); fill-rule: nonzero; opacity: 1;" vector-effect="non-scaling-stroke"  x="-540" y="-540" rx="0" ry="0" width="1080" height="1080" />
</g>
<g transform="matrix(1 0 0 1 540 540)" id="2441fef2-87ce-4b40-84de-aaad79f75a92"  >
</g>
<g transform="matrix(5.32 0 0 6.52 530.31 540)" id="Layer_1"  >
<path style="stroke: none; stroke-width: 7; stroke-dasharray: none; stroke-linecap: butt; stroke-dashoffset: 0; stroke-linejoin: miter; stroke-miterlimit: 4; fill: rgb(0,0,0); fill-rule: evenodd; opacity: 1;"  transform=" translate(-61.44, -54.01)" d="M 16.35 0 L 106.53999999999999 0 C 115.52999999999999 0 122.88999999999999 7.36 122.88999999999999 16.35 L 122.88999999999999 91.66999999999999 C 122.88999999999999 100.65999999999998 115.52999999999999 108.01999999999998 106.53999999999999 108.01999999999998 L 16.35 108.01999999999998 C 7.36 108.01 0 100.66 0 91.67 L 0 16.35 C 0 7.36 7.36 0 16.35 0 L 16.35 0 z M 64.64 77.54 L 114.25999999999999 77.54 L 114.25999999999999 98.74000000000001 L 64.64 98.74000000000001 L 64.64 77.54 L 64.64 77.54 z M 8.02 77.54 L 57.64 77.54 L 57.64 98.74000000000001 L 8.02 98.74000000000001 L 8.02 77.54 L 8.02 77.54 z M 8.02 21.13 L 57.64 21.13 L 57.64 42.33 L 8.02 42.33 L 8.02 21.13 L 8.02 21.13 z M 8.02 49.34 L 57.64 49.34 L 57.64 70.54 L 8.02 70.54 L 8.02 49.34 L 8.02 49.34 z M 64.64 21.13 L 114.25999999999999 21.13 L 114.25999999999999 42.33 L 64.64 42.33 L 64.64 21.13 L 64.64 21.13 z M 64.64 49.34 L 114.25999999999999 49.34 L 114.25999999999999 70.54 L 64.64 70.54 L 64.64 49.34 L 64.64 49.34 z" stroke-linecap="round" />
</g>
<g transform="matrix(NaN NaN NaN NaN 0 0)"  >
<g style=""   >
</g>
</g>
</svg>